<svg xmlns="http://www.w3.org/2000/svg" width="64.281" height="78.69" viewBox="0 0 64.281 78.69">
  <defs>
    <style>
      .cls-1 {
        fill: #333;
        fill-rule: evenodd;
        opacity: 0.85;
      }
    </style>
  </defs>
  <path id="Shape_6_copy_2" data-name="Shape 6 copy 2" class="cls-1" d="M804.346,1277.66l0.794,3.03a94.853,94.853,0,0,0,28.671-14.03c13.249-9.57,28.4-27.2,30.768-55.6a0.745,0.745,0,0,0-.409-0.72,0.778,0.778,0,0,0-.829.06l-5.562,6.57,7.722-12.37c0.265,2.64-.7,7.86.574,19.19l2.536-1.68c-2.556-13.47-1.726-19.37-1.73-19.42a0.779,0.779,0,0,0-.533-0.66,0.8,0.8,0,0,0-.828.22l-13.348,19.11a0.751,0.751,0,0,0,.01,1.02,0.786,0.786,0,0,0,1.034.1l9.71-9.88c-1.907,27.03-17.287,43.6-29.994,52.79A71.282,71.282,0,0,1,804.346,1277.66Z" transform="translate(-804.344 -1202)"/>
</svg>
