<svg xmlns="http://www.w3.org/2000/svg" width="70.44" height="87.719" viewBox="0 0 70.44 87.719">
  <defs>
    <style>
      .cls-1 {
        fill: #fff;
        fill-rule: evenodd;
      }
    </style>
  </defs>
  <path id="Shape_6_copy" data-name="Shape 6 copy" class="cls-1" d="M1788.36,535.711l0.89,3.354a103.72,103.72,0,0,0,31.48-15.736c14.53-10.7,31.11-30.358,33.56-61.9a0.824,0.824,0,0,0-.46-0.791,0.861,0.861,0,0,0-.91.066l-6.08,7.325,8.43-13.779c0.3,2.936-.73,8.732.73,21.306l2.79-1.873c-2.89-14.943-2.01-21.5-2.01-21.553a0.859,0.859,0,0,0-1.5-.482l-14.59,21.286a0.84,0.84,0,0,0,.02,1.136,0.85,0.85,0,0,0,1.13.109l10.64-11.032c-1.96,30.026-18.79,48.509-32.73,58.78A78.291,78.291,0,0,1,1788.36,535.711Z" transform="translate(-1788.34 -451.344)"/>
</svg>
