<svg xmlns="http://www.w3.org/2000/svg" width="38.53" height="93.12" viewBox="0 0 38.53 93.12">
  <defs>
    <style>
      .cls-1 {
        fill: #333;
        fill-rule: evenodd;
        opacity: 0.85;
      }
    </style>
  </defs>
  <path id="Shape_6_copy_7" data-name="Shape 6 copy 7" class="cls-1" d="M1369.45,3816.81l-2.98-.92a92.915,92.915,0,0,0-2.98,31.53c1.24,16.19,8.35,38.23,31.25,55.14a0.742,0.742,0,0,0,.82.03,0.753,0.753,0,0,0,.38-0.73l-2.69-8.14,6.5,13.01c-2.38-1.16-6.31-4.72-16.61-9.6l0.11,3.02c12.78,4.92,17.36,8.72,17.4,8.75a0.779,0.779,0,0,0,.84-0.11,0.76,0.76,0,0,0,.24-0.81l-9.29-21.29a0.772,0.772,0,0,0-.88-0.53,0.782,0.782,0,0,0-.62.82l3.35,13.38c-21.98-15.81-28.07-37.48-29.27-53.01A70.533,70.533,0,0,1,1369.45,3816.81Z" transform="translate(-1363.22 -3815.88)"/>
</svg>
